{
  "accessors": [
    {
      "bufferView": 0,
      "componentType": 5126,
      "count": 10000,
      "max": [
        -13.42916488647461,
        4.187255382537842,
        2.5721123218536377
      ],
      "min": [
        -21.38612174987793,
        -7.223132610321045,
        -7.068746566772461
      ],
      "type": "VEC3"
    },
    {
      "bufferView": 1,
      "componentType": 5126,
      "count": 10000,
      "max": [
        0.0,
        0.0,
        0.0,
        1.0
      ],
      "min": [
        0.0,
        0.0,
        0.0,
        1.0
      ],
      "type": "VEC4"
    },
    {
      "bufferView": 0,
      "byteOffset": 120000,
      "componentType": 5126,
      "count": 10000,
      "max": [
        -11.566325187683105,
        4.215790271759033,
        3.1411020755767822
      ],
      "min": [
        -21.087383270263672,
        -7.390578746795654,
        -6.5830302238464355
      ],
      "type": "VEC3"
    },
    {
      "bufferView": 1,
      "byteOffset": 160000,
      "componentType": 5126,
      "count": 10000,
      "max": [
        0.0,
        0.0,
        0.0,
        1.0
      ],
      "min": [
        0.0,
        0.0,
        0.0,
        1.0
      ],
      "type": "VEC4"
    },
    {
      "bufferView": 0,
      "byteOffset": 240000,
      "componentType": 5126,
      "count": 10000,
      "max": [
        -6.297467231750488,
        4.367368221282959,
        2.6207997798919678
      ],
      "min": [
        -20.524845123291016,
        -8.014463424682617,
        -6.2636823654174805
      ],
      "type": "VEC3"
    },
    {
      "bufferView": 1,
      "byteOffset": 320000,
      "componentType": 5126,
      "count": 10000,
      "max": [
        0.0,
        0.0,
        0.0,
        1.0
      ],
      "min": [
        0.0,
        0.0,
        0.0,
        1.0
      ],
      "type": "VEC4"
    },
    {
      "bufferView": 0,
      "byteOffset": 360000,
      "componentType": 5126,
      "count": 10000,
      "max": [
        -3.853438377380371,
        4.148993015289307,
        2.8487837314605713
      ],
      "min": [
        -15.807515144348145,
        -8.09854793548584,
        -6.324459552764893
      ],
      "type": "VEC3"
    },
    {
      "bufferView": 1,
      "byteOffset": 480000,
      "componentType": 5126,
      "count": 10000,
      "max": [
        0.0,
        0.0,
        0.0,
        1.0
      ],
      "min": [
        0.0,
        0.0,
        0.0,
        1.0
      ],
      "type": "VEC4"
    },
    {
      "bufferView": 0,
      "byteOffset": 480000,
      "componentType": 5126,
      "count": 8786,
      "max": [
        -3.9708948135375977,
        3.682260036468506,
        1.644592523574829
      ],
      "min": [
        -18.26593017578125,
        -8.20324420928955,
        -7.361414909362793
      ],
      "type": "VEC3"
    },
    {
      "bufferView": 1,
      "byteOffset": 640000,
      "componentType": 5126,
      "count": 8786,
      "max": [
        0.0,
        0.0,
        0.0,
        1.0
      ],
      "min": [
        0.0,
        0.0,
        0.0,
        1.0
      ],
      "type": "VEC4"
    }
  ],
  "asset": {
    "extras": {
      "author": "isaaciullah (https://sketchfab.com/isaaciullah)",
      "license": "CC-BY-NC-SA-4.0 (http://creativecommons.org/licenses/by-nc-sa/4.0/)",
      "source": "https://sketchfab.com/3d-models/mckinney-house-pointcloud-trnio-and-iphone-09f0a75db0ff454ab6f27f7922a15b7b",
      "title": "McKinney House pointcloud - Trnio and iPhone"
    },
    "generator": "Sketchfab-11.79.0",
    "version": "2.0"
  },
  "bufferViews": [
    {
      "buffer": 0,
      "byteLength": 585432,
      "byteStride": 12,
      "name": "floatBufferViews",
      "target": 34962
    },
    {
      "buffer": 0,
      "byteLength": 780576,
      "byteOffset": 585432,
      "byteStride": 16,
      "name": "floatBufferViews",
      "target": 34962
    }
  ],
  "buffers": [
    {
      "byteLength": 1366008,
      "uri": "scene.bin"
    }
  ],
  "extensionsUsed": [
    "KHR_materials_unlit"
  ],
  "materials": [
    {
      "doubleSided": true,
      "extensions": {
        "KHR_materials_unlit": {}
      },
      "name": "Scene_-_Root",
      "pbrMetallicRoughness": {
        "metallicFactor": 0.0
      }
    }
  ],
  "meshes": [
    {
      "name": "Object_0",
      "primitives": [
        {
          "attributes": {
            "COLOR_0": 1,
            "POSITION": 0
          },
          "material": 0,
          "mode": 0
        }
      ]
    },
    {
      "name": "Object_1",
      "primitives": [
        {
          "attributes": {
            "COLOR_0": 3,
            "POSITION": 2
          },
          "material": 0,
          "mode": 0
        }
      ]
    },
    {
      "name": "Object_2",
      "primitives": [
        {
          "attributes": {
            "COLOR_0": 5,
            "POSITION": 4
          },
          "material": 0,
          "mode": 0
        }
      ]
    },
    {
      "name": "Object_3",
      "primitives": [
        {
          "attributes": {
            "COLOR_0": 7,
            "POSITION": 6
          },
          "material": 0,
          "mode": 0
        }
      ]
    },
    {
      "name": "Object_4",
      "primitives": [
        {
          "attributes": {
            "COLOR_0": 9,
            "POSITION": 8
          },
          "material": 0,
          "mode": 0
        }
      ]
    }
  ],
  "nodes": [
    {
      "children": [
        1
      ],
      "matrix": [
        1.0,
        0.0,
        0.0,
        0.0,
        0.0,
        2.220446049250313e-16,
        -1.0,
        0.0,
        0.0,
        1.0,
        2.220446049250313e-16,
        0.0,
        0.0,
        0.0,
        0.0,
        1.0
      ],
      "name": "Sketchfab_model"
    },
    {
      "children": [
        2,
        3,
        4,
        5,
        6
      ],
      "matrix": [
        1.0,
        0.0,
        0.0,
        0.0,
        0.0,
        1.0,
        0.0,
        0.0,
        0.0,
        0.0,
        1.0,
        0.0,
        8.76634215,
        6.28530645,
        5.2512586,
        1.0
      ],
      "name": "bf2d82cdd55f4df9927b20c6af53a4f4.las.cleaner.materialmerger.gles"
    },
    {
      "mesh": 0,
      "name": "Object_2"
    },
    {
      "mesh": 1,
      "name": "Object_3"
    },
    {
      "mesh": 2,
      "name": "Object_4"
    },
    {
      "mesh": 3,
      "name": "Object_5"
    },
    {
      "mesh": 4,
      "name": "Object_6"
    }
  ],
  "scene": 0,
  "scenes": [
    {
      "name": "Sketchfab_Scene",
      "nodes": [
        0
      ]
    }
  ]
}
