{
  "accessors": [
    {
      "bufferView": 2,
      "componentType": 5126,
      "count": 65532,
      "max": [
        4.353107929229736,
        0.1202179342508316,
        4.3784685134887695
      ],
      "min": [
        -3.818622589111328,
        -5.583218574523926,
        -4.3792877197265625
      ],
      "type": "VEC3"
    },
    {
      "bufferView": 2,
      "byteOffset": 786384,
      "componentType": 5126,
      "count": 65532,
      "max": [
        1.0,
        1.0,
        1.0
      ],
      "min": [
        -0.9997243285179138,
        -1.0,
        -1.0
      ],
      "type": "VEC3"
    },
    {
      "bufferView": 1,
      "componentType": 5126,
      "count": 65532,
      "max": [
        0.9997559785842896,
        0.9997559785842896
      ],
      "min": [
        0.00024399999529123306,
        0.00024399999529123306
      ],
      "type": "VEC2"
    },
    {
      "bufferView": 0,
      "componentType": 5125,
      "count": 234717,
      "type": "SCALAR"
    },
    {
      "bufferView": 2,
      "byteOffset": 1572768,
      "componentType": 5126,
      "count": 65532,
      "max": [
        4.353107929229736,
        0.12021675705909729,
        4.377992630004883
      ],
      "min": [
        -3.8188388347625732,
        -5.469183921813965,
        -4.3792877197265625
      ],
      "type": "VEC3"
    },
    {
      "bufferView": 2,
      "byteOffset": 2359152,
      "componentType": 5126,
      "count": 65532,
      "max": [
        0.9999991655349731,
        1.0,
        1.0
      ],
      "min": [
        -0.9999997615814209,
        -0.9999997019767761,
        -0.9999979734420776
      ],
      "type": "VEC3"
    },
    {
      "bufferView": 1,
      "byteOffset": 524256,
      "componentType": 5126,
      "count": 65532,
      "max": [
        0.9997559785842896,
        0.9997559785842896
      ],
      "min": [
        0.00024399999529123306,
        0.00024399999529123306
      ],
      "type": "VEC2"
    },
    {
      "bufferView": 0,
      "byteOffset": 938868,
      "componentType": 5125,
      "count": 186432,
      "type": "SCALAR"
    },
    {
      "bufferView": 2,
      "byteOffset": 3145536,
      "componentType": 5126,
      "count": 42396,
      "max": [
        4.3531084060668945,
        0.1202179342508316,
        4.3784685134887695
      ],
      "min": [
        -3.8188388347625732,
        -5.583218574523926,
        -4.3792877197265625
      ],
      "type": "VEC3"
    },
    {
      "bufferView": 2,
      "byteOffset": 3654288,
      "componentType": 5126,
      "count": 42396,
      "max": [
        1.0,
        1.0,
        0.9999603033065796
      ],
      "min": [
        -1.0,
        -0.9999980330467224,
        -1.0
      ],
      "type": "VEC3"
    },
    {
      "bufferView": 1,
      "byteOffset": 1048512,
      "componentType": 5126,
      "count": 42396,
      "max": [
        0.9997559785842896,
        0.9997559785842896
      ],
      "min": [
        0.00024399999529123306,
        0.00024399999529123306
      ],
      "type": "VEC2"
    },
    {
      "bufferView": 0,
      "byteOffset": 1684596,
      "componentType": 5125,
      "count": 100056,
      "type": "SCALAR"
    },
    {
      "bufferView": 2,
      "byteOffset": 4163040,
      "componentType": 5126,
      "count": 65532,
      "max": [
        4.3531084060668945,
        0.1202179342508316,
        4.3784685134887695
      ],
      "min": [
        -3.8188388347625732,
        -5.5180535316467285,
        -4.3792877197265625
      ],
      "type": "VEC3"
    },
    {
      "bufferView": 2,
      "byteOffset": 4949424,
      "componentType": 5126,
      "count": 65532,
      "max": [
        0.9999924898147583,
        0.9999988079071045,
        0.9999986290931702
      ],
      "min": [
        -1.0,
        -0.9999955296516418,
        -0.9999991059303284
      ],
      "type": "VEC3"
    },
    {
      "bufferView": 1,
      "byteOffset": 1387680,
      "componentType": 5126,
      "count": 65532,
      "max": [
        1.9997559785842896,
        0.861083984375
      ],
      "min": [
        1.0002440214157104,
        0.00024399999529123306
      ],
      "type": "VEC2"
    },
    {
      "bufferView": 0,
      "byteOffset": 2084820,
      "componentType": 5125,
      "count": 202830,
      "type": "SCALAR"
    },
    {
      "bufferView": 2,
      "byteOffset": 5735808,
      "componentType": 5126,
      "count": 64022,
      "max": [
        3.590045690536499,
        -0.39159679412841797,
        4.3755011558532715
      ],
      "min": [
        -3.2445902824401855,
        -5.569052696228027,
        -3.9308385848999023
      ],
      "type": "VEC3"
    },
    {
      "bufferView": 2,
      "byteOffset": 6504072,
      "componentType": 5126,
      "count": 64022,
      "max": [
        0.9999998807907104,
        0.999982476234436,
        0.9999995827674866
      ],
      "min": [
        -0.9999993443489075,
        -0.9999253749847412,
        -0.9999998211860657
      ],
      "type": "VEC3"
    },
    {
      "bufferView": 1,
      "byteOffset": 1911936,
      "componentType": 5126,
      "count": 64022,
      "max": [
        1.9997559785842896,
        0.8649899959564209
      ],
      "min": [
        1.0002440214157104,
        0.00024399999529123306
      ],
      "type": "VEC2"
    },
    {
      "bufferView": 0,
      "byteOffset": 2896140,
      "componentType": 5125,
      "count": 175959,
      "type": "SCALAR"
    }
  ],
  "asset": {
    "extras": {
      "author": "Viesturs Dille (https://sketchfab.com/vdille)",
      "license": "CC-BY-4.0 (http://creativecommons.org/licenses/by/4.0/)",
      "source": "https://sketchfab.com/3d-models/braki-cloth-store-6e1c0546f2da444492506a50f69294bf",
      "title": "Braki Cloth store"
    },
    "generator": "Sketchfab-11.75.0",
    "version": "2.0"
  },
  "bufferViews": [
    {
      "buffer": 0,
      "byteLength": 3599976,
      "name": "floatBufferViews",
      "target": 34963
    },
    {
      "buffer": 0,
      "byteLength": 2424112,
      "byteOffset": 3599976,
      "byteStride": 8,
      "name": "floatBufferViews",
      "target": 34962
    },
    {
      "buffer": 0,
      "byteLength": 7272336,
      "byteOffset": 6024088,
      "byteStride": 12,
      "name": "floatBufferViews",
      "target": 34962
    }
  ],
  "buffers": [
    {
      "byteLength": 13296424,
      "uri": "scene.bin"
    }
  ],
  "extensionsUsed": [
    "KHR_materials_unlit"
  ],
  "images": [
    {
      "uri": "textures/braki_kleets_Material_u1_v1_baseColor.jpeg"
    },
    {
      "uri": "textures/braki_kleets_Material_u2_v1_baseColor.jpeg"
    }
  ],
  "materials": [
    {
      "doubleSided": true,
      "extensions": {
        "KHR_materials_unlit": {}
      },
      "name": "braki_kleets_Material_u1_v1",
      "pbrMetallicRoughness": {
        "baseColorTexture": {
          "index": 0
        },
        "metallicFactor": 0.0
      }
    },
    {
      "doubleSided": true,
      "extensions": {
        "KHR_materials_unlit": {}
      },
      "name": "braki_kleets_Material_u2_v1",
      "pbrMetallicRoughness": {
        "baseColorTexture": {
          "index": 1
        },
        "metallicFactor": 0.0
      }
    }
  ],
  "meshes": [
    {
      "name": "Object_0",
      "primitives": [
        {
          "attributes": {
            "NORMAL": 1,
            "POSITION": 0,
            "TEXCOORD_0": 2
          },
          "indices": 3,
          "material": 0,
          "mode": 4
        }
      ]
    },
    {
      "name": "Object_1",
      "primitives": [
        {
          "attributes": {
            "NORMAL": 5,
            "POSITION": 4,
            "TEXCOORD_0": 6
          },
          "indices": 7,
          "material": 0,
          "mode": 4
        }
      ]
    },
    {
      "name": "Object_2",
      "primitives": [
        {
          "attributes": {
            "NORMAL": 9,
            "POSITION": 8,
            "TEXCOORD_0": 10
          },
          "indices": 11,
          "material": 0,
          "mode": 4
        }
      ]
    },
    {
      "name": "Object_3",
      "primitives": [
        {
          "attributes": {
            "NORMAL": 13,
            "POSITION": 12,
            "TEXCOORD_0": 14
          },
          "indices": 15,
          "material": 1,
          "mode": 4
        }
      ]
    },
    {
      "name": "Object_4",
      "primitives": [
        {
          "attributes": {
            "NORMAL": 17,
            "POSITION": 16,
            "TEXCOORD_0": 18
          },
          "indices": 19,
          "material": 1,
          "mode": 4
        }
      ]
    }
  ],
  "nodes": [
    {
      "children": [
        1
      ],
      "matrix": [
        1.0,
        0.0,
        0.0,
        0.0,
        0.0,
        -1.0,
        -4.440892098500626e-16,
        0.0,
        0.0,
        4.440892098500626e-16,
        -1.0,
        0.0,
        0.0,
        -2.731894493103028,
        2.731103897094726,
        1.0
      ],
      "name": "Sketchfab_model"
    },
    {
      "children": [
        2,
        3,
        4,
        5,
        6
      ],
      "name": "braki_kleets.obj.cleaner.materialmerger.gles"
    },
    {
      "mesh": 0,
      "name": "Object_2"
    },
    {
      "mesh": 1,
      "name": "Object_3"
    },
    {
      "mesh": 2,
      "name": "Object_4"
    },
    {
      "mesh": 3,
      "name": "Object_5"
    },
    {
      "mesh": 4,
      "name": "Object_6"
    }
  ],
  "samplers": [
    {
      "magFilter": 9729,
      "minFilter": 9987,
      "wrapS": 10497,
      "wrapT": 10497
    }
  ],
  "scene": 0,
  "scenes": [
    {
      "name": "Sketchfab_Scene",
      "nodes": [
        0
      ]
    }
  ],
  "textures": [
    {
      "sampler": 0,
      "source": 0
    },
    {
      "sampler": 0,
      "source": 1
    }
  ]
}
