<?xml version="1.0" encoding="UTF-8" standalone="no"?>
<svg
   xmlns:dc="http://purl.org/dc/elements/1.1/"
   xmlns:cc="http://creativecommons.org/ns#"
   xmlns:rdf="http://www.w3.org/1999/02/22-rdf-syntax-ns#"
   xmlns:svg="http://www.w3.org/2000/svg"
   xmlns="http://www.w3.org/2000/svg"
   xmlns:sodipodi="http://sodipodi.sourceforge.net/DTD/sodipodi-0.dtd"
   xmlns:inkscape="http://www.inkscape.org/namespaces/inkscape"
   width="860pt"
   version="1.1"
   height="200pt"
   viewBox="0 0 860 200"
   id="svg139"
   sodipodi:docname="main_banner.svg"
   inkscape:version="1.0.1 (3bc2e813f5, 2020-09-07)"
   inkscape:export-filename="/home/iullah/Dropbox/website/isaacullah.github.io/images/main_banner.png"
   inkscape:export-xdpi="300"
   inkscape:export-ydpi="300">
  <metadata
     id="metadata143">
    <rdf:RDF>
      <cc:Work
         rdf:about="">
        <dc:format>image/svg+xml</dc:format>
        <dc:type
           rdf:resource="http://purl.org/dc/dcmitype/StillImage" />
        <dc:title></dc:title>
      </cc:Work>
    </rdf:RDF>
  </metadata>
  <sodipodi:namedview
     pagecolor="#ffffff"
     bordercolor="#666666"
     borderopacity="1"
     objecttolerance="10"
     gridtolerance="10"
     guidetolerance="10"
     inkscape:pageopacity="0"
     inkscape:pageshadow="2"
     inkscape:window-width="1920"
     inkscape:window-height="1016"
     id="namedview141"
     showgrid="false"
     inkscape:zoom="0.87191959"
     inkscape:cx="473.41333"
     inkscape:cy="129.93969"
     inkscape:window-x="0"
     inkscape:window-y="27"
     inkscape:window-maximized="1"
     inkscape:current-layer="svg139"
     inkscape:document-rotation="0" />
  <defs
     id="defs20">
    <rect
       x="-0.61441541"
       y="-0.29977885"
       width="858.02246"
       height="213.53436"
       id="rect147" />
    <path
       id="GlCarme67"
       d="m 1.67484,9.07469 c 0,0 -1.074215,-1.07672 -1.074215,-2.57563 0,0 0,-1.49906 1.074215,-2.57328 0,0 1.07422,-1.07422 2.57328,-1.07422 0,0 1.22063,0 2.22157,0.75688 L 5.88875,4.18938 c 0,0 -0.76172,-0.58094 -1.64063,-0.58094 0,0 -1.13781,0 -1.94343,0.84968 0,0 -0.80563,0.84954 -0.80563,2.04094 0,0 0,1.19141 0.80563,2.0411 0,0 0.80562,0.84953 1.94343,0.84953 0,0 0.89844,0 1.64063,-0.57141 l 0.58094,0.58109 c 0,0 -1.01063,0.75203 -2.22157,0.75203 0,0 -1.49906,0 -2.57328,-1.07671 z" />
    <path
       id="GlCarme79"
       d="m 1.62109,9.08453 c 0,0 -1.020465,-1.06703 -1.020465,-2.58547 0,0 0,-1.51859 1.020465,-2.58297 0,0 1.02047,-1.06453 2.58047,-1.06453 0,0 1.56016,0 2.62953,1.06938 0,0 1.06938,1.06922 1.06938,2.57812 0,0 0,1.50875 -1.06938,2.58063 0,0 -1.06937,1.07171 -2.62953,1.07171 0,0 -1.56,0 -2.58047,-1.06687 z M 2.25828,4.44828 c 0,0 -0.75922,0.83984 -0.75922,2.05078 0,0 0,1.21094 0.75922,2.05078 0,0 0.75938,0.83985 1.94094,0.83985 0,0 1.18172,0 1.99219,-0.84469 0,0 0.81062,-0.84484 0.81062,-2.04594 0,0 0,-1.20125 -0.81062,-2.04594 0,0 -0.81047,-0.84468 -1.99219,-0.84468 0,0 -1.18156,0 -1.94094,0.83984 z" />
    <path
       id="GlCarme77"
       d="M 0.761719,10 V 2.99797 H 1.66016 L 3.80859,6.08891 5.96188,2.99797 H 6.86031 V 10 H 5.96188 V 4.39938 L 4.15047,6.91891 H 3.46188 L 1.66016,4.40922 V 10 Z" />
    <path
       id="GlCarme80"
       d="M 0.859375,10 V 2.99797 H 3.28125 c 0,0 1.00094,0 1.70891,0.68609 0,0 0.70812,0.6861 0.70812,1.64563 0,0 0,0.95937 -0.70812,1.64062 0,0 -0.70797,0.6811 -1.70891,0.6811 H 1.75781 V 10 Z M 1.75781,6.99219 h 1.52344 c 0,0 0.62984,0 1.07422,-0.48578 0,0 0.44437,-0.48594 0.44437,-1.17688 0,0 0,-0.69094 -0.44437,-1.17922 0,0 -0.44438,-0.48828 -1.07422,-0.48828 H 1.75781 Z" />
    <path
       id="GlCarme85"
       d="M 0.859375,7.40234 V 2.99797 H 1.75781 v 4.59969 c 0,0 0,0.43937 0.20016,0.78609 0,0 0.20031,0.34672 0.51516,0.54203 0,0 0.31499,0.19531 0.64703,0.29547 0,0 0.33203,0.1 0.64203,0.1 0,0 0.31015,0 0.63969,-0.1 0,0 0.32953,-0.10016 0.64453,-0.29547 0,0 0.315,-0.19531 0.51515,-0.53953 0,0 0.20016,-0.34422 0.20016,-0.78859 V 2.99797 h 0.89844 v 4.40437 c 0,0 0,0.64938 -0.20516,1.15235 0,0 -0.205,0.50297 -0.51516,0.79343 0,0 -0.31,0.29047 -0.72015,0.48094 0,0 -0.41016,0.19044 -0.75922,0.25644 0,0 -0.34906,0.0659 -0.70063,0.0659 0,0 -0.34187,0 -0.70078,-0.0659 0,0 -0.3589,-0.066 -0.76422,-0.25644 0,0 -0.40515,-0.19047 -0.71531,-0.48578 0,0 -0.31,-0.29547 -0.51515,-0.79828 0,0 -0.205005,-0.50297 -0.205005,-1.14266 z" />
    <path
       id="GlCarme84"
       d="M 0.0976562,3.66203 V 2.99797 H 5.20016 V 3.66203 H 3.10062 V 10 H 2.20219 V 3.66203 Z" />
    <path
       id="GlCarme65"
       d="M 0.400469,10 3.29109,2.99797 H 4.18953 L 7.10938,10 H 6.21094 L 5.22953,7.66109 H 2.26078 L 1.29891,10 Z M 2.53906,7.00188 H 4.96094 L 3.74031,3.92094 Z" />
    <path
       id="GlCarme73"
       d="M 0.859375,10 V 2.99797 H 1.75781 V 10 Z" />
    <path
       id="GlCarme78"
       d="M 0.761719,10 V 2.99797 H 1.66016 L 5.17094,8.50094 V 2.99797 H 6.06937 V 10 H 5.17094 L 1.66016,4.49219 V 10 Z" />
    <path
       id="GlCarme76"
       d="M 0.859375,10 V 2.99797 H 1.75781 v 6.34281 h 3.3936 V 10 Z" />
    <path
       id="GlCarme82"
       d="M 0.859375,10 V 2.99797 H 3.08109 c 0,0 1.01078,0 1.71391,0.63484 0,0 0.70312,0.63469 0.70312,1.59672 0,0 0,0.71766 -0.40296,1.26953 0,0 -0.40282,0.55172 -1.07657,0.79094 L 5.60062,10 H 4.70219 L 3.21781,7.45109 h -1.46 V 10 Z M 1.75781,6.79203 h 1.32328 c 0,0 0.63969,0 1.07907,-0.44187 0,0 0.43953,-0.44203 0.43953,-1.12063 0,0 0,-0.67875 -0.43953,-1.12312 0,0 -0.43938,-0.44438 -1.07907,-0.44438 H 1.75781 Z" />
    <path
       id="GlCarme72"
       d="M 0.859375,10 V 2.99797 H 1.75781 V 6.17188 H 5.25875 V 2.99797 H 6.16219 V 10 H 5.25875 V 6.83109 H 1.75781 V 10 Z" />
    <path
       id="GlCarme69"
       d="M 0.859375,10 V 2.99797 H 5.32234 V 3.63766 H 1.75781 V 5.85938 H 4.72172 V 6.49906 H 1.75781 V 9.36031 H 5.32234 V 10 Z" />
    <path
       id="GlCarme71"
       d="m 1.67484,9.07469 c 0,0 -1.074215,-1.07672 -1.074215,-2.57563 0,0 0,-1.49906 1.074215,-2.57328 0,0 1.07422,-1.07422 2.57328,-1.07422 0,0 1.22063,0 2.22157,0.75688 L 5.88875,4.18938 c 0,0 -0.76172,-0.58094 -1.64063,-0.58094 0,0 -1.13781,0 -1.94343,0.84968 0,0 -0.80563,0.84954 -0.80563,2.04094 0,0 0,1.19141 0.80563,2.0411 0,0 0.80562,0.84953 1.94343,0.84953 0,0 0.97157,0 1.7236,-0.63969 V 7.00188 H 4.62891 V 6.36234 h 2.24125 v 2.67579 c 0,0 -0.30766,0.3075 -0.60063,0.50281 0,0 -0.91797,0.61046 -2.02141,0.61046 0,0 -1.49906,0 -2.57328,-1.07671 z" />
    <path
       id="GlCarme89"
       d="M 0.400469,2.99797 H 1.29891 L 3.11031,6.00094 5.00984,2.99797 H 5.90828 L 3.52047,6.79203 V 10 H 2.68063 V 6.79203 Z" />
    <path
       id="GlCarme68"
       d="M 0.859375,10 V 2.99797 H 3.00781 c 0,0 1.58203,0 2.56594,1.02062 0,0 0.98391,1.02047 0.98391,2.48047 0,0 0,1.45985 -0.98391,2.48047 0,0 -0.98391,1.02047 -2.56594,1.02047 z M 1.75781,9.34078 h 0.85453 c 0,0 0.73235,0 1.28891,-0.19031 0,0 0.55672,-0.19047 0.88391,-0.48094 0,0 0.32718,-0.29062 0.52984,-0.68609 0,0 0.20266,-0.39563 0.27344,-0.74953 0,0 0.07078,-0.35407 0.07078,-0.73485 0,0 0,-0.38093 -0.07078,-0.73484 0,0 -0.07078,-0.35406 -0.27344,-0.74953 0,0 -0.20266,-0.39563 -0.52984,-0.6861 0,0 -0.32719,-0.29047 -0.88625,-0.47843 0,0 -0.55907,-0.18813 -1.28657,-0.18813 H 1.75781 Z" />
    <path
       id="GlCarme83"
       d="m 0.542031,4.59953 c 0,0 0,-0.77141 0.664059,-1.25969 0,0 0.66407,-0.48828 1.53313,-0.48828 0,0 0.66906,0 1.33312,0.30766 0,0 0.21969,0.09765 0.49797,0.3125 L 4.22859,4.20891 c 0,0 -0.21984,-0.17079 -0.45906,-0.29782 0,0 -0.56156,-0.29781 -1.03031,-0.30265 0,0 -0.50781,0 -0.90328,0.26125 0,0 -0.39547,0.26109 -0.39547,0.72984 0,0 0,0.19047 0.07562,0.35172 0,0 0.07578,0.16109 0.26125,0.30266 l 0.28328,0.21968 c 0,0 0.09766,0.07329 0.37344,0.21485 0,0 0.27594,0.14156 0.30516,0.16109 l 0.4639,0.25391 c 0,0 0.33688,0.18562 0.45907,0.26859 l 0.36609,0.24422 c 0,0 0.24906,0.16594 0.35156,0.30031 0,0 0.10266,0.13422 0.23204,0.32953 0,0 0.12937,0.19532 0.17812,0.42485 0,0 0.04891,0.22937 0.04891,0.50781 0,0 0,0.83984 -0.69829,1.40625 0,0 -0.69828,0.5664 -1.60156,0.5664 0,0 -0.75187,0 -1.45015,-0.41999 0,0 -0.30766,-0.18063 -0.546879,-0.42969 L 0.88875,8.54984 c 0,0 0.27828,0.24891 0.55172,0.41985 0,0 0.63969,0.42 1.09859,0.42 0,0 0.5811,0 0.99125,-0.33938 0,0 0.41016,-0.33937 0.41016,-0.87156 0,0 0,-0.46875 -0.34922,-0.83984 0,0 -0.34906,-0.3711 -0.85203,-0.625 L 1.73828,6.19141 c 0,0 -0.49797,-0.2686 -0.847186,-0.67141 0,0 -0.349063,-0.40281 -0.349063,-0.92047 z" />
    <path
       id="GlCarme66"
       d="M 0.859375,10 V 2.99797 H 3.26172 c 0,0 0.62015,0 1.07422,0.17094 0,0 0.45406,0.17093 0.68359,0.45171 0,0 0.22953,0.28079 0.32953,0.55907 0,0 0.10016,0.27828 0.10016,0.57125 0,0 0,0.82031 -0.65922,1.26953 0,0 1.12797,0.53219 1.12797,1.76765 0,0 0,0.97157 -0.68359,1.59172 0,0 -0.6836,0.62016 -1.90422,0.62016 z M 1.75781,9.34078 h 1.40141 c 0,0 1.86031,0 1.86031,-1.55266 0,0 0,-0.70812 -0.42969,-1.03281 0,0 -0.42968,-0.32468 -1.33781,-0.34422 H 1.75781 Z m 0,-3.59859 h 1.33297 c 0,0 0.83016,0 1.145,-0.22703 0,0 0.315,-0.22704 0.315,-0.76422 0,0 0,-0.56156 -0.31984,-0.82516 0,0 -0.31985,-0.26375 -1.14016,-0.26375 0,0 -0.15125,0.00985 -0.46875,0.00985 H 1.75781 Z" />
  </defs>
  <text
     xml:space="preserve"
     id="text145"
     style="font-style:normal;font-weight:normal;font-size:56px;line-height:1.15;font-family:sans-serif;letter-spacing:5.625px;word-spacing:8.775px;white-space:pre;shape-inside:url(#rect147);fill:#000000;fill-opacity:1;stroke:none;"
     x="756.72742"
     y="0"
     transform="translate(0.98128242,3.7790417)"><tspan
       x="12.368492"
       y="46.461171"><tspan
         dx="0 0 0 0 0 0 0 0 0 0 0 0 0 -9.7500153 9.7500153"
         style="word-spacing:9.75px">Computational Archaeology</tspan><tspan
         dx="-8.7750149"
         style="font-style:normal;font-variant:normal;font-weight:normal;font-stretch:normal;font-size:56px;font-family:Electron;-inkscape-font-specification:Electron;text-align:center;text-anchor:middle">
</tspan></tspan><tspan
       x="19.075485"
       y="110.8743"><tspan
         dx="0 0 0 -6 6 0 0 -6 6 0 0 0 0 0 0 0 0 0 0 0 0 0 -6.0000153 5.9999847"
         style="letter-spacing:5.25px;word-spacing:6px">and the Geoarchaeology of</tspan><tspan
         dx="-9.1500149"
         style="font-style:normal;font-variant:normal;font-weight:normal;font-stretch:normal;font-size:56px;font-family:Electron;-inkscape-font-specification:Electron;text-align:center;text-anchor:middle">
</tspan></tspan><tspan
       x="19.039093"
       y="175.28742"><tspan
         dx="0 0 0 0 0 0 0 0 0 0 0 0 -21.000015 21.000015"
         style="font-style:normal;font-variant:normal;font-weight:normal;font-stretch:normal;font-size:56px;font-family:Electron;-inkscape-font-specification:Electron;text-align:center;letter-spacing:6px;word-spacing:21px;text-anchor:middle">Anthropocene Landscapes</tspan></tspan></text>
</svg>
