<?xml version="1.0" encoding="UTF-8"?>
<svg width="857pt" version="1.1" xmlns="http://www.w3.org/2000/svg" height="213pt" viewBox="0 0 857 213" xmlns:xlink="http://www.w3.org/1999/xlink">
 <defs>
  <path id="GlCarme67" d="M1.67484 9.07469 C1.67484 9.07469 0.600625 7.99797 0.600625 6.49906 C0.600625 6.49906 0.600625 5 1.67484 3.92578 C1.67484 3.92578 2.74906 2.85156 4.24812 2.85156 C4.24812 2.85156 5.46875 2.85156 6.46969 3.60844 L5.88875 4.18938 C5.88875 4.18938 5.12703 3.60844 4.24812 3.60844 C4.24812 3.60844 3.11031 3.60844 2.30469 4.45812 C2.30469 4.45812 1.49906 5.30766 1.49906 6.49906 C1.49906 6.49906 1.49906 7.69047 2.30469 8.54016 C2.30469 8.54016 3.11031 9.38969 4.24812 9.38969 C4.24812 9.38969 5.14656 9.38969 5.88875 8.81828 L6.46969 9.39937 C6.46969 9.39937 5.45906 10.1514 4.24812 10.1514 C4.24812 10.1514 2.74906 10.1514 1.67484 9.07469 Z"/>
  <path id="GlCarme79" d="M1.62109 9.08453 C1.62109 9.08453 0.600625 8.0175 0.600625 6.49906 C0.600625 6.49906 0.600625 4.98047 1.62109 3.91609 C1.62109 3.91609 2.64156 2.85156 4.20156 2.85156 C4.20156 2.85156 5.76172 2.85156 6.83109 3.92094 C6.83109 3.92094 7.90047 4.99016 7.90047 6.49906 C7.90047 6.49906 7.90047 8.00781 6.83109 9.07969 C6.83109 9.07969 5.76172 10.1514 4.20156 10.1514 C4.20156 10.1514 2.64156 10.1514 1.62109 9.08453 L1.62109 9.08453 Z M2.25828 4.44828 C2.25828 4.44828 1.49906 5.28812 1.49906 6.49906 C1.49906 6.49906 1.49906 7.71 2.25828 8.54984 C2.25828 8.54984 3.01766 9.38969 4.19922 9.38969 C4.19922 9.38969 5.38094 9.38969 6.19141 8.545 C6.19141 8.545 7.00203 7.70016 7.00203 6.49906 C7.00203 6.49906 7.00203 5.29781 6.19141 4.45312 C6.19141 4.45312 5.38094 3.60844 4.19922 3.60844 C4.19922 3.60844 3.01766 3.60844 2.25828 4.44828 Z"/>
  <path id="GlCarme77" d="M0.761719 10 L0.761719 2.99797 L1.66016 2.99797 L3.80859 6.08891 L5.96188 2.99797 L6.86031 2.99797 L6.86031 10 L5.96188 10 L5.96188 4.39938 L4.15047 6.91891 L3.46188 6.91891 L1.66016 4.40922 L1.66016 10 L0.761719 10 Z"/>
  <path id="GlCarme80" d="M0.859375 10 L0.859375 2.99797 L3.28125 2.99797 C3.28125 2.99797 4.28219 2.99797 4.99016 3.68406 C4.99016 3.68406 5.69828 4.37016 5.69828 5.32969 C5.69828 5.32969 5.69828 6.28906 4.99016 6.97031 C4.99016 6.97031 4.28219 7.65141 3.28125 7.65141 L1.75781 7.65141 L1.75781 10 L0.859375 10 L0.859375 10 Z M1.75781 6.99219 L3.28125 6.99219 C3.28125 6.99219 3.91109 6.99219 4.35547 6.50641 C4.35547 6.50641 4.79984 6.02047 4.79984 5.32953 C4.79984 5.32953 4.79984 4.63859 4.35547 4.15031 C4.35547 4.15031 3.91109 3.66203 3.28125 3.66203 L1.75781 3.66203 L1.75781 6.99219 Z"/>
  <path id="GlCarme85" d="M0.859375 7.40234 L0.859375 2.99797 L1.75781 2.99797 L1.75781 7.59766 C1.75781 7.59766 1.75781 8.03703 1.95797 8.38375 C1.95797 8.38375 2.15828 8.73047 2.47313 8.92578 C2.47313 8.92578 2.78812 9.12109 3.12016 9.22125 C3.12016 9.22125 3.45219 9.32125 3.76219 9.32125 C3.76219 9.32125 4.07234 9.32125 4.40188 9.22125 C4.40188 9.22125 4.73141 9.12109 5.04641 8.92578 C5.04641 8.92578 5.36141 8.73047 5.56156 8.38625 C5.56156 8.38625 5.76172 8.04203 5.76172 7.59766 L5.76172 2.99797 L6.66016 2.99797 L6.66016 7.40234 C6.66016 7.40234 6.66016 8.05172 6.455 8.55469 C6.455 8.55469 6.25 9.05766 5.93984 9.34812 C5.93984 9.34812 5.62984 9.63859 5.21969 9.82906 C5.21969 9.82906 4.80953 10.0195 4.46047 10.0855 C4.46047 10.0855 4.11141 10.1514 3.75984 10.1514 C3.75984 10.1514 3.41797 10.1514 3.05906 10.0855 C3.05906 10.0855 2.70016 10.0195 2.29484 9.82906 C2.29484 9.82906 1.88969 9.63859 1.57953 9.34328 C1.57953 9.34328 1.26953 9.04781 1.06438 8.545 C1.06438 8.545 0.859375 8.04203 0.859375 7.40234 Z"/>
  <path id="GlCarme84" d="M0.0976562 3.66203 L0.0976562 2.99797 L5.20016 2.99797 L5.20016 3.66203 L3.10062 3.66203 L3.10062 10 L2.20219 10 L2.20219 3.66203 L0.0976562 3.66203 Z"/>
  <path id="GlCarme65" d="M0.400469 10 L3.29109 2.99797 L4.18953 2.99797 L7.10938 10 L6.21094 10 L5.22953 7.66109 L2.26078 7.66109 L1.29891 10 L0.400469 10 L0.400469 10 Z M2.53906 7.00188 L4.96094 7.00188 L3.74031 3.92094 L2.53906 7.00188 Z"/>
  <path id="GlCarme73" d="M0.859375 10 L0.859375 2.99797 L1.75781 2.99797 L1.75781 10 L0.859375 10 Z"/>
  <path id="GlCarme78" d="M0.761719 10 L0.761719 2.99797 L1.66016 2.99797 L5.17094 8.50094 L5.17094 2.99797 L6.06937 2.99797 L6.06937 10 L5.17094 10 L1.66016 4.49219 L1.66016 10 L0.761719 10 Z"/>
  <path id="GlCarme76" d="M0.859375 10 L0.859375 2.99797 L1.75781 2.99797 L1.75781 9.34078 L5.15141 9.34078 L5.15141 10 L0.859375 10 Z"/>
  <path id="GlCarme82" d="M0.859375 10 L0.859375 2.99797 L3.08109 2.99797 C3.08109 2.99797 4.09187 2.99797 4.795 3.63281 C4.795 3.63281 5.49812 4.2675 5.49812 5.22953 C5.49812 5.22953 5.49812 5.94719 5.09516 6.49906 C5.09516 6.49906 4.69234 7.05078 4.01859 7.29 L5.60062 10 L4.70219 10 L3.21781 7.45109 L1.75781 7.45109 L1.75781 10 L0.859375 10 L0.859375 10 Z M1.75781 6.79203 L3.08109 6.79203 C3.08109 6.79203 3.72078 6.79203 4.16016 6.35016 C4.16016 6.35016 4.59969 5.90813 4.59969 5.22953 C4.59969 5.22953 4.59969 4.55078 4.16016 4.10641 C4.16016 4.10641 3.72078 3.66203 3.08109 3.66203 L1.75781 3.66203 L1.75781 6.79203 Z"/>
  <path id="GlCarme72" d="M0.859375 10 L0.859375 2.99797 L1.75781 2.99797 L1.75781 6.17188 L5.25875 6.17188 L5.25875 2.99797 L6.16219 2.99797 L6.16219 10 L5.25875 10 L5.25875 6.83109 L1.75781 6.83109 L1.75781 10 L0.859375 10 Z"/>
  <path id="GlCarme69" d="M0.859375 10 L0.859375 2.99797 L5.32234 2.99797 L5.32234 3.63766 L1.75781 3.63766 L1.75781 5.85938 L4.72172 5.85938 L4.72172 6.49906 L1.75781 6.49906 L1.75781 9.36031 L5.32234 9.36031 L5.32234 10 L0.859375 10 Z"/>
  <path id="GlCarme71" d="M1.67484 9.07469 C1.67484 9.07469 0.600625 7.99797 0.600625 6.49906 C0.600625 6.49906 0.600625 5 1.67484 3.92578 C1.67484 3.92578 2.74906 2.85156 4.24812 2.85156 C4.24812 2.85156 5.46875 2.85156 6.46969 3.60844 L5.88875 4.18938 C5.88875 4.18938 5.12703 3.60844 4.24812 3.60844 C4.24812 3.60844 3.11031 3.60844 2.30469 4.45812 C2.30469 4.45812 1.49906 5.30766 1.49906 6.49906 C1.49906 6.49906 1.49906 7.69047 2.30469 8.54016 C2.30469 8.54016 3.11031 9.38969 4.24812 9.38969 C4.24812 9.38969 5.21969 9.38969 5.97172 8.75 L5.97172 7.00188 L4.62891 7.00188 L4.62891 6.36234 L6.87016 6.36234 L6.87016 9.03813 C6.87016 9.03813 6.5625 9.34563 6.26953 9.54094 C6.26953 9.54094 5.35156 10.1514 4.24812 10.1514 C4.24812 10.1514 2.74906 10.1514 1.67484 9.07469 Z"/>
  <path id="GlCarme89" d="M0.400469 2.99797 L1.29891 2.99797 L3.11031 6.00094 L5.00984 2.99797 L5.90828 2.99797 L3.52047 6.79203 L3.52047 10 L2.68063 10 L2.68063 6.79203 L0.400469 2.99797 Z"/>
  <path id="GlCarme68" d="M0.859375 10 L0.859375 2.99797 L3.00781 2.99797 C3.00781 2.99797 4.58984 2.99797 5.57375 4.01859 C5.57375 4.01859 6.55766 5.03906 6.55766 6.49906 C6.55766 6.49906 6.55766 7.95891 5.57375 8.97953 C5.57375 8.97953 4.58984 10 3.00781 10 L0.859375 10 L0.859375 10 Z M1.75781 9.34078 L2.61234 9.34078 C2.61234 9.34078 3.34469 9.34078 3.90125 9.15047 C3.90125 9.15047 4.45797 8.96 4.78516 8.66953 C4.78516 8.66953 5.11234 8.37891 5.315 7.98344 C5.315 7.98344 5.51766 7.58781 5.58844 7.23391 C5.58844 7.23391 5.65922 6.87984 5.65922 6.49906 C5.65922 6.49906 5.65922 6.11813 5.58844 5.76422 C5.58844 5.76422 5.51766 5.41016 5.315 5.01469 C5.315 5.01469 5.11234 4.61906 4.78516 4.32859 C4.78516 4.32859 4.45797 4.03812 3.89891 3.85016 C3.89891 3.85016 3.33984 3.66203 2.61234 3.66203 L1.75781 3.66203 L1.75781 9.34078 Z"/>
  <path id="GlCarme83" d="M0.542031 4.59953 C0.542031 4.59953 0.542031 3.82812 1.20609 3.33984 C1.20609 3.33984 1.87016 2.85156 2.73922 2.85156 C2.73922 2.85156 3.40828 2.85156 4.07234 3.15922 C4.07234 3.15922 4.29203 3.25687 4.57031 3.47172 L4.22859 4.20891 C4.22859 4.20891 4.00875 4.03812 3.76953 3.91109 C3.76953 3.91109 3.20797 3.61328 2.73922 3.60844 C2.73922 3.60844 2.23141 3.60844 1.83594 3.86969 C1.83594 3.86969 1.44047 4.13078 1.44047 4.59953 C1.44047 4.59953 1.44047 4.79 1.51609 4.95125 C1.51609 4.95125 1.59187 5.11234 1.77734 5.25391 L2.06062 5.47359 C2.06062 5.47359 2.15828 5.54688 2.43406 5.68844 C2.43406 5.68844 2.71 5.83 2.73922 5.84953 L3.20312 6.10344 C3.20312 6.10344 3.54 6.28906 3.66219 6.37203 L4.02828 6.61625 C4.02828 6.61625 4.27734 6.78219 4.37984 6.91656 C4.37984 6.91656 4.4825 7.05078 4.61188 7.24609 C4.61188 7.24609 4.74125 7.44141 4.79 7.67094 C4.79 7.67094 4.83891 7.90031 4.83891 8.17875 C4.83891 8.17875 4.83891 9.01859 4.14062 9.585 C4.14062 9.585 3.44234 10.1514 2.53906 10.1514 C2.53906 10.1514 1.78719 10.1514 1.08891 9.73141 C1.08891 9.73141 0.78125 9.55078 0.542031 9.30172 L0.88875 8.54984 C0.88875 8.54984 1.16703 8.79875 1.44047 8.96969 C1.44047 8.96969 2.08016 9.38969 2.53906 9.38969 C2.53906 9.38969 3.12016 9.38969 3.53031 9.05031 C3.53031 9.05031 3.94047 8.71094 3.94047 8.17875 C3.94047 8.17875 3.94047 7.71 3.59125 7.33891 C3.59125 7.33891 3.24219 6.96781 2.73922 6.71391 L1.73828 6.19141 C1.73828 6.19141 1.24031 5.92281 0.891094 5.52 C0.891094 5.52 0.542031 5.11719 0.542031 4.59953 Z"/>
  <path id="GlCarme66" d="M0.859375 10 L0.859375 2.99797 L3.26172 2.99797 C3.26172 2.99797 3.88187 2.99797 4.33594 3.16891 C4.33594 3.16891 4.79 3.33984 5.01953 3.62062 C5.01953 3.62062 5.24906 3.90141 5.34906 4.17969 C5.34906 4.17969 5.44922 4.45797 5.44922 4.75094 C5.44922 4.75094 5.44922 5.57125 4.79 6.02047 C4.79 6.02047 5.91797 6.55266 5.91797 7.78812 C5.91797 7.78812 5.91797 8.75969 5.23438 9.37984 C5.23438 9.37984 4.55078 10 3.33016 10 L0.859375 10 L0.859375 10 Z M1.75781 9.34078 L3.15922 9.34078 C3.15922 9.34078 5.01953 9.34078 5.01953 7.78812 C5.01953 7.78812 5.01953 7.08 4.58984 6.75531 C4.58984 6.75531 4.16016 6.43063 3.25203 6.41109 L1.75781 6.41109 L1.75781 9.34078 L1.75781 9.34078 Z M1.75781 5.74219 L3.09078 5.74219 C3.09078 5.74219 3.92094 5.74219 4.23578 5.51516 C4.23578 5.51516 4.55078 5.28812 4.55078 4.75094 C4.55078 4.75094 4.55078 4.18938 4.23094 3.92578 C4.23094 3.92578 3.91109 3.66203 3.09078 3.66203 C3.09078 3.66203 2.93953 3.67188 2.62203 3.67188 L1.75781 3.67188 L1.75781 5.74219 Z"/>
 </defs>
 <g id="Background">
  <g transform="translate(0, 0)">
   <use style="fill:#545556;stroke:none;" xlink:href="#GlCarme67" transform="matrix(4.2 0 0 5.04 60.5312 13.0487)"/>
   <use style="fill:#545556;stroke:none;" xlink:href="#GlCarme79" transform="matrix(3.15 0 0 3.78 89.5087 25.6487)"/>
   <use style="fill:#545556;stroke:none;" xlink:href="#GlCarme77" transform="matrix(3.15 0 0 3.78 124.671 25.6487)"/>
   <use style="fill:#545556;stroke:none;" xlink:href="#GlCarme80" transform="matrix(3.15 0 0 3.78 157.389 25.6487)"/>
   <use style="fill:#545556;stroke:none;" xlink:href="#GlCarme85" transform="matrix(3.15 0 0 3.78 185.63 25.6487)"/>
   <use style="fill:#545556;stroke:none;" xlink:href="#GlCarme84" transform="matrix(3.15 0 0 3.78 217.393 25.6487)"/>
   <use style="fill:#545556;stroke:none;" xlink:href="#GlCarme65" transform="matrix(3.15 0 0 3.78 241.913 25.6487)"/>
   <use style="fill:#545556;stroke:none;" xlink:href="#GlCarme84" transform="matrix(3.15 0 0 3.78 272.799 25.6487)"/>
   <use style="fill:#545556;stroke:none;" xlink:href="#GlCarme73" transform="matrix(3.15 0 0 3.78 297.888 25.6487)"/>
   <use style="fill:#545556;stroke:none;" xlink:href="#GlCarme79" transform="matrix(3.15 0 0 3.78 313.932 25.6487)"/>
   <use style="fill:#545556;stroke:none;" xlink:href="#GlCarme78" transform="matrix(3.15 0 0 3.78 349.095 25.6487)"/>
   <use style="fill:#545556;stroke:none;" xlink:href="#GlCarme65" transform="matrix(3.15 0 0 3.78 378.997 25.6487)"/>
   <use style="fill:#545556;stroke:none;" xlink:href="#GlCarme76" transform="matrix(3.15 0 0 3.78 411.053 25.6487)"/>
   <use style="fill:#545556;stroke:none;" xlink:href="#GlCarme65" transform="matrix(4.2 0 0 5.04 454.985 13.0487)"/>
   <use style="fill:#545556;stroke:none;" xlink:href="#GlCarme82" transform="matrix(3.15 0 0 3.78 494.926 25.6487)"/>
   <use style="fill:#545556;stroke:none;" xlink:href="#GlCarme67" transform="matrix(3.15 0 0 3.78 522.213 25.6487)"/>
   <use style="fill:#545556;stroke:none;" xlink:href="#GlCarme72" transform="matrix(3.15 0 0 3.78 552.346 25.6487)"/>
   <use style="fill:#545556;stroke:none;" xlink:href="#GlCarme65" transform="matrix(3.15 0 0 3.78 582.849 25.6487)"/>
   <use style="fill:#545556;stroke:none;" xlink:href="#GlCarme69" transform="matrix(3.15 0 0 3.78 614.028 25.6487)"/>
   <use style="fill:#545556;stroke:none;" xlink:href="#GlCarme79" transform="matrix(3.15 0 0 3.78 640.531 25.6487)"/>
   <use style="fill:#545556;stroke:none;" xlink:href="#GlCarme76" transform="matrix(3.15 0 0 3.78 675.125 25.6487)"/>
   <use style="fill:#545556;stroke:none;" xlink:href="#GlCarme79" transform="matrix(3.15 0 0 3.78 700.997 25.6487)"/>
   <use style="fill:#545556;stroke:none;" xlink:href="#GlCarme71" transform="matrix(3.15 0 0 3.78 736.16 25.6487)"/>
   <use style="fill:#545556;stroke:none;" xlink:href="#GlCarme89" transform="matrix(3.15 0 0 3.78 767.447 25.6487)"/>
   <use style="fill:#545556;stroke:none;" xlink:href="#GlCarme65" transform="matrix(3.15 0 0 3.78 385.872 76.0774)"/>
   <use style="fill:#545556;stroke:none;" xlink:href="#GlCarme78" transform="matrix(3.15 0 0 3.78 409.527 76.0774)"/>
   <use style="fill:#545556;stroke:none;" xlink:href="#GlCarme68" transform="matrix(3.15 0 0 3.78 439.43 76.0774)"/>
   <use style="fill:#545556;stroke:none;" xlink:href="#GlCarme78" transform="matrix(4.2 0 0 5.04 14.2722 113.906)"/>
   <use style="fill:#545556;stroke:none;" xlink:href="#GlCarme69" transform="matrix(3.15 0 0 3.78 42.1834 126.506)"/>
   <use style="fill:#545556;stroke:none;" xlink:href="#GlCarme79" transform="matrix(3.15 0 0 3.78 68.6866 126.506)"/>
   <use style="fill:#545556;stroke:none;" xlink:href="#GlCarme76" transform="matrix(3.15 0 0 3.78 103.28 126.506)"/>
   <use style="fill:#545556;stroke:none;" xlink:href="#GlCarme73" transform="matrix(3.15 0 0 3.78 129.153 126.506)"/>
   <use style="fill:#545556;stroke:none;" xlink:href="#GlCarme84" transform="matrix(3.15 0 0 3.78 145.197 126.506)"/>
   <use style="fill:#545556;stroke:none;" xlink:href="#GlCarme72" transform="matrix(3.15 0 0 3.78 170.285 126.506)"/>
   <use style="fill:#545556;stroke:none;" xlink:href="#GlCarme73" transform="matrix(3.15 0 0 3.78 200.788 126.506)"/>
   <use style="fill:#545556;stroke:none;" xlink:href="#GlCarme67" transform="matrix(3.15 0 0 3.78 216.832 126.506)"/>
   <use style="fill:#545556;stroke:none;" xlink:href="#GlCarme83" transform="matrix(4.2 0 0 5.04 265.024 113.906)"/>
   <use style="fill:#545556;stroke:none;" xlink:href="#GlCarme85" transform="matrix(3.15 0 0 3.78 295.634 126.506)"/>
   <use style="fill:#545556;stroke:none;" xlink:href="#GlCarme66" transform="matrix(3.15 0 0 3.78 327.398 126.506)"/>
   <use style="fill:#545556;stroke:none;" xlink:href="#GlCarme83" transform="matrix(3.15 0 0 3.78 355.793 126.506)"/>
   <use style="fill:#545556;stroke:none;" xlink:href="#GlCarme73" transform="matrix(3.15 0 0 3.78 380.85 126.506)"/>
   <use style="fill:#545556;stroke:none;" xlink:href="#GlCarme83" transform="matrix(3.15 0 0 3.78 397.495 126.506)"/>
   <use style="fill:#545556;stroke:none;" xlink:href="#GlCarme84" transform="matrix(3.15 0 0 3.78 422.829 126.506)"/>
   <use style="fill:#545556;stroke:none;" xlink:href="#GlCarme69" transform="matrix(3.15 0 0 3.78 447.348 126.506)"/>
   <use style="fill:#545556;stroke:none;" xlink:href="#GlCarme78" transform="matrix(3.15 0 0 3.78 473.851 126.506)"/>
   <use style="fill:#545556;stroke:none;" xlink:href="#GlCarme67" transform="matrix(3.15 0 0 3.78 503.754 126.506)"/>
   <use style="fill:#545556;stroke:none;" xlink:href="#GlCarme69" transform="matrix(3.15 0 0 3.78 533.887 126.506)"/>
   <use style="fill:#545556;stroke:none;" xlink:href="#GlCarme69" transform="matrix(4.2 0 0 5.04 578.449 113.906)"/>
   <use style="fill:#545556;stroke:none;" xlink:href="#GlCarme67" transform="matrix(3.15 0 0 3.78 610.987 126.506)"/>
   <use style="fill:#545556;stroke:none;" xlink:href="#GlCarme79" transform="matrix(3.15 0 0 3.78 641.12 126.506)"/>
   <use style="fill:#545556;stroke:none;" xlink:href="#GlCarme78" transform="matrix(3.15 0 0 3.78 676.283 126.506)"/>
   <use style="fill:#545556;stroke:none;" xlink:href="#GlCarme79" transform="matrix(3.15 0 0 3.78 705.616 126.506)"/>
   <use style="fill:#545556;stroke:none;" xlink:href="#GlCarme77" transform="matrix(3.15 0 0 3.78 740.779 126.506)"/>
   <use style="fill:#545556;stroke:none;" xlink:href="#GlCarme73" transform="matrix(3.15 0 0 3.78 773.496 126.506)"/>
   <use style="fill:#545556;stroke:none;" xlink:href="#GlCarme69" transform="matrix(3.15 0 0 3.78 790.14 126.506)"/>
   <use style="fill:#545556;stroke:none;" xlink:href="#GlCarme83" transform="matrix(3.15 0 0 3.78 816.643 126.506)"/>
   <path style="fill:none; stroke:none;" d="M0 0 L857 0 L857 213 L0 213 L0 0 Z"/>
  </g>
 </g>
</svg>
